HIERARCHY
ROOT hip
{
  OFFSET 19.9712 82.5164 -121.764
  CHANNELS 6 Xposition Yposition Zposition Zrotation Xrotation Yrotation
  JOINT abdomen
  {
    OFFSET 0 20.6881 -0.73152
    CHANNELS 3 Zrotation Xrotation Yrotation
    JOINT chest
    {
      OFFSET 0 11.7043 -0.48768
      CHANNELS 3 Zrotation Xrotation Yrotation
      JOINT neck
      {
        OFFSET 0 22.1894 -2.19456
        CHANNELS 3 Zrotation Xrotation Yrotation
        JOINT head
        {
          OFFSET -0.24384 7.07133 1.2192
          CHANNELS 3 Zrotation Xrotation Yrotation
          JOINT leftEye
          {
            OFFSET 4.14528 8.04674 8.04672
            CHANNELS 3 Zrotation Xrotation Yrotation
            End Site
            {
              OFFSET 1 0 0
            }
          }
          JOINT rightEye
          {
            OFFSET -3.6576 8.04674 8.04672
            CHANNELS 3 Zrotation Xrotation Yrotation
            End Site
            {
              OFFSET 1 0 0
            }
          }
        }
      }
      JOINT rCollar
      {
        OFFSET -2.68224 19.2634 -4.8768
        CHANNELS 3 Zrotation Xrotation Yrotation
        JOINT rShldr
        {
          OFFSET -8.77824 -1.95073 1.46304
          CHANNELS 3 Zrotation Xrotation Yrotation
          JOINT rForeArm
          {
            OFFSET -28.1742 -1.7115 0.48768
            CHANNELS 3 Zrotation Xrotation Yrotation
            JOINT rHand
            {
              OFFSET -22.5879 0.773209 7.07136
              CHANNELS 3 Zrotation Xrotation Yrotation
              JOINT rThumb1
              {
                OFFSET -1.2192 -0.487915 3.41376
                CHANNELS 3 Zrotation Xrotation Yrotation
                JOINT rThumb2
                {
                  OFFSET -3.37035 -0.52449 3.41376
                  CHANNELS 3 Zrotation Xrotation Yrotation
                  End Site
                  {
                    OFFSET -1.78271 -1.18214 1.43049
                  }
                }
              }
              JOINT rIndex1
              {
                OFFSET -7.75947 0.938293 5.60832
                CHANNELS 3 Zrotation Xrotation Yrotation
                JOINT rIndex2
                {
                  OFFSET -2.54057 -0.884171 1.56538
                  CHANNELS 3 Zrotation Xrotation Yrotation
                  End Site
                  {
                    OFFSET -1.62519 -0.234802 1.16502
                  }
                }
              }
              JOINT rMid1
              {
                OFFSET -8.24714 1.18213 3.41376
                CHANNELS 3 Zrotation Xrotation Yrotation
                JOINT rMid2
                {
                  OFFSET -3.10165 -0.590103 1.0647
                  CHANNELS 3 Zrotation Xrotation Yrotation
                  End Site
                  {
                    OFFSET -2.48547 -0.328903 0.83742
                  }
                }
              }
              JOINT rRing1
              {
                OFFSET -8.82822 0.546677 1.51678
                CHANNELS 3 Zrotation Xrotation Yrotation
                JOINT rRing2
                {
                  OFFSET -2.60934 -0.819778 -0.0198488
                  CHANNELS 3 Zrotation Xrotation Yrotation
                  End Site
                  {
                    OFFSET -2.33842 -0.294052 0.168128
                  }
                }
              }
              JOINT rPinky1
              {
                OFFSET -8.27202 -0.0477905 -0.4584
                CHANNELS 3 Zrotation Xrotation Yrotation
                JOINT rPinky2
                {
                  OFFSET -1.82734 -0.647385 -0.700984
                  CHANNELS 3 Zrotation Xrotation Yrotation
                  End Site
                  {
                    OFFSET -1.69225 -0.51767 -0.607171
                  }
                }
              }
            }
          }
        }
      }
      JOINT lCollar
      {
        OFFSET 2.68224 19.2634 -4.8768
        CHANNELS 3 Zrotation Xrotation Yrotation
        JOINT lShldr
        {
          OFFSET 8.77824 -1.95073 1.46304
          CHANNELS 3 Zrotation Xrotation Yrotation
          JOINT lForeArm
          {
            OFFSET 28.1742 -1.7115 0.48768
            CHANNELS 3 Zrotation Xrotation Yrotation
            JOINT lHand
            {
              OFFSET 22.5879 0.773209 7.07136
              CHANNELS 3 Zrotation Xrotation Yrotation
              JOINT lThumb1
              {
                OFFSET 1.2192 -0.487915 3.41376
                CHANNELS 3 Zrotation Xrotation Yrotation
                JOINT lThumb2
                {
                  OFFSET 3.37035 -0.52449 3.41376
                  CHANNELS 3 Zrotation Xrotation Yrotation
                  End Site
                  {
                    OFFSET 1.78271 -1.18214 1.43049
                  }
                }
              }
              JOINT lIndex1
              {
                OFFSET 7.75947 0.938293 5.60832
                CHANNELS 3 Zrotation Xrotation Yrotation
                JOINT lIndex2
                {
                  OFFSET 2.54057 -0.884171 1.56538
                  CHANNELS 3 Zrotation Xrotation Yrotation
                  End Site
                  {
                    OFFSET 1.62519 -0.234802 1.16502
                  }
                }
              }
              JOINT lMid1
              {
                OFFSET 8.24714 1.18213 3.41376
                CHANNELS 3 Zrotation Xrotation Yrotation
                JOINT lMid2
                {
                  OFFSET 3.10165 -0.590103 1.0647
                  CHANNELS 3 Zrotation Xrotation Yrotation
                  End Site
                  {
                    OFFSET 2.48547 -0.328903 0.83742
                  }
                }
              }
              JOINT lRing1
              {
                OFFSET 8.82822 0.546677 1.51678
                CHANNELS 3 Zrotation Xrotation Yrotation
                JOINT lRing2
                {
                  OFFSET 2.60934 -0.819778 -0.0198488
                  CHANNELS 3 Zrotation Xrotation Yrotation
                  End Site
                  {
                    OFFSET 2.33842 -0.294052 0.168128
                  }
                }
              }
              JOINT lPinky1
              {
                OFFSET 8.27202 -0.0477905 -0.4584
                CHANNELS 3 Zrotation Xrotation Yrotation
                JOINT lPinky2
                {
                  OFFSET 1.82734 -0.647385 -0.700984
                  CHANNELS 3 Zrotation Xrotation Yrotation
                  End Site
                  {
                    OFFSET 1.69225 -0.51767 -0.607171
                  }
                }
              }
            }
          }
        }
      }
    }
  }
  JOINT rButtock
  {
    OFFSET -8.77824 4.35084 1.2192
    CHANNELS 3 Zrotation Xrotation Yrotation
    JOINT rThigh
    {
      OFFSET 0 -1.70687 -2.19456
      CHANNELS 3 Zrotation Xrotation Yrotation
      JOINT rShin
      {
        OFFSET 0 -36.8199 0.73152
        CHANNELS 3 Zrotation Xrotation Yrotation
        JOINT rFoot
        {
          OFFSET 0.73152 -45.1104 -5.12064
          CHANNELS 3 Zrotation Xrotation Yrotation
          End Site
          {
            OFFSET -1.1221 -3.69964 12.103
          }
        }
      }
    }
  }
  JOINT lButtock
  {
    OFFSET 8.77824 4.35084 1.2192
    CHANNELS 3 Zrotation Xrotation Yrotation
    JOINT lThigh
    {
      OFFSET 0 -1.70687 -2.19456
      CHANNELS 3 Zrotation Xrotation Yrotation
      JOINT lShin
      {
        OFFSET 0 -36.8199 0.73152
        CHANNELS 3 Zrotation Xrotation Yrotation
        JOINT lFoot
        {
          OFFSET -0.73152 -45.1104 -5.12064
          CHANNELS 3 Zrotation Xrotation Yrotation
          End Site
          {
            OFFSET 1.1221 -3.69964 12.103
          }
        }
      }
    }
  }
}
MOTION
Frames:	4
Frame Time:	0.00833333
-3.11342 78.2891 -55.0904 0.0473504 -7.12038 44.4849 2.04678 7.07983 -5.09974 0.618043 -6.5217 -1.51186 -16.1591 10.52 -11.1168 18.1914 -38.0078 -14.8007 -0 0 0 -0 0 0 1.2498e-014 3.67719e-013 4.86128e-013 21.9194 -17.7695 73.6619 -28.4269 -34.9198 75.2179 -1.17867 29.2537 4.51477 -1.67042e-009 1.25183e-009 -3.58843e-010 -2.88749e-009 2.1389e-009 -5.83395e-010 -1.67041e-009 1.25182e-009 -3.58849e-010 7.73091 5.47488 0.417314 -1.67042e-009 1.25183e-009 -3.58845e-010 2.90554 0.965183 0.102902 -1.67041e-009 1.25182e-009 -3.58845e-010 10.2786 0.731801 0.0259123 -1.67042e-009 1.25183e-009 -3.58837e-010 2.22167 -0.733487 -0.20892 1.23854e-014 3.67727e-013 4.8592e-013 -32.6609 -8.9161 -99.6032 24.7687 -20.6079 -52.1462 6.76835 -56.9103 12.4547 3.07457e-009 -3.13284e-009 4.78787e-009 5.06257e-009 -5.16739e-009 8.37219e-009 3.07457e-009 -3.13284e-009 4.78788e-009 -7.73091 5.47488 -0.417314 3.07457e-009 -3.13284e-009 4.78787e-009 -2.90554 0.965183 -0.102902 3.07456e-009 -3.13284e-009 4.78787e-009 -10.2786 0.731801 -0.0259123 3.07457e-009 -3.13284e-009 4.78786e-009 -2.22167 -0.733487 0.20892 -2.03217e-016 0 -3.88251e-019 -0.557097 -23.489 2.11323 -0.597894 50.7678 1.20559 -2.94196 -8.80785 -9.96313 2.03217e-016 0 3.88251e-019 11.1851 -16.6242 0.171388 0.6868 53.715 -1.30618 -4.33665 -13.9356 -14.054 
-2.98181 79.3786 -54.9323 -0.0945613 -6.94121 44.7866 1.87053 6.46046 -4.95416 0.68912 -6.62899 -1.47401 -16.2798 10.6545 -11.2471 18.2314 -37.74 -15.1107 -0 0 0 -0 0 0 6.11704e-014 4.20799e-013 6.82192e-013 21.6838 -18.7746 73.4806 -28.3809 -34.0711 73.933 -1.25532 30.0879 4.67032 -2.37969e-009 1.91386e-009 -8.76162e-010 -4.12164e-009 3.27256e-009 -1.45755e-009 -2.37968e-009 1.91386e-009 -8.76167e-010 7.73091 5.47488 0.417314 -2.37969e-009 1.91386e-009 -8.76161e-010 2.90554 0.965183 0.102902 -2.37968e-009 1.91386e-009 -8.76162e-010 10.2786 0.731801 0.0259123 -2.37969e-009 1.91387e-009 -8.76155e-010 2.22167 -0.733487 -0.20892 6.10706e-014 4.20804e-013 6.81965e-013 -32.7445 -9.4428 -100.401 24.5585 -20.178 -51.4352 6.64488 -56.6024 12.3072 3.14412e-009 -3.29193e-009 5.48659e-009 5.15339e-009 -5.41557e-009 9.57662e-009 3.14412e-009 -3.29193e-009 5.4866e-009 -7.73091 5.47488 -0.417314 3.14412e-009 -3.29193e-009 5.48659e-009 -2.90554 0.965183 -0.102902 3.14412e-009 -3.29193e-009 5.4866e-009 -10.2786 0.731801 -0.0259123 3.14412e-009 -3.29193e-009 5.48659e-009 -2.22167 -0.733487 0.20892 -2.03217e-016 0 -3.88251e-019 -0.713487 -22.6489 1.89238 -0.543238 48.9373 1.10925 -2.42776 -6.76163 -9.26914 2.03217e-016 0 3.88251e-019 10.7949 -15.961 -0.545741 0.607555 51.776 -1.22757 -3.75773 -11.4362 -14.2922 
-2.85892 80.4468 -54.7996 -0.244794 -6.73456 45.0662 1.68685 5.85278 -4.80013 0.757876 -6.74256 -1.43231 -16.3963 10.7612 -11.3802 18.2825 -37.4763 -15.415 -0 0 0 -0 0 0 1.00755e-013 4.43975e-013 7.93269e-013 21.5131 -19.8639 73.3896 -28.3079 -33.1267 72.4368 -1.33123 30.8764 4.82005 -2.76895e-009 2.39255e-009 -1.29567e-009 -4.80209e-009 4.09391e-009 -2.17084e-009 -2.76895e-009 2.39255e-009 -1.29568e-009 7.73091 5.47488 0.417314 -2.76896e-009 2.39254e-009 -1.29567e-009 2.90554 0.965183 0.102902 -2.76895e-009 2.39255e-009 -1.29567e-009 10.2786 0.731801 0.0259123 -2.76896e-009 2.39255e-009 -1.29566e-009 2.22167 -0.733487 -0.20892 1.00674e-013 4.43977e-013 7.93025e-013 -32.8322 -9.97226 -101.205 24.34 -19.7449 -50.7094 6.52952 -56.308 12.1687 2.98637e-009 -3.18011e-009 5.69746e-009 4.8757e-009 -5.21724e-009 9.93197e-009 2.98637e-009 -3.18011e-009 5.69747e-009 -7.73091 5.47488 -0.417314 2.98638e-009 -3.18011e-009 5.69746e-009 -2.90554 0.965183 -0.102902 2.98637e-009 -3.18011e-009 5.69747e-009 -10.2786 0.731801 -0.0259123 2.98637e-009 -3.18011e-009 5.69746e-009 -2.22167 -0.733487 0.20892 -2.03217e-016 0 -3.88251e-019 -0.863554 -21.9044 1.74711 -0.49613 47.17 1.02164 -1.97375 -4.66234 -8.67746 2.03217e-016 0 3.88251e-019 10.3981 -15.4103 -1.22291 0.539667 49.9566 -1.16142 -3.12094 -8.89423 -14.4438 
-2.74284 81.4835 -54.6869 -0.394524 -6.50696 45.3071 1.4956 5.25829 -4.64049 0.823097 -6.84266 -1.38775 -16.5026 10.822 -11.5093 18.3333 -37.2096 -15.7001 -0 0 0 -0 0 0 1.08196e-013 4.42892e-013 7.57171e-013 21.3823 -21.0643 73.4333 -28.2154 -32.105 70.623 -1.40169 31.5738 4.95497 -2.20684e-009 2.23718e-009 -1.38276e-009 -3.83426e-009 3.83351e-009 -2.33456e-009 -2.20684e-009 2.23718e-009 -1.38276e-009 7.73091 5.47488 0.417314 -2.20685e-009 2.23717e-009 -1.38275e-009 2.90554 0.965183 0.102902 -2.20684e-009 2.23718e-009 -1.38275e-009 10.2786 0.731801 0.0259123 -2.20685e-009 2.23718e-009 -1.38275e-009 2.22167 -0.733487 -0.20892 1.08138e-013 4.42892e-013 7.56922e-013 -32.9 -10.5515 -102.01 24.1064 -19.2971 -49.9475 6.45513 -56.1144 12.079 2.80087e-009 -2.91066e-009 5.13363e-009 4.58413e-009 -4.77069e-009 8.95333e-009 2.80087e-009 -2.91066e-009 5.13364e-009 -7.73091 5.47488 -0.417314 2.80088e-009 -2.91066e-009 5.13363e-009 -2.90554 0.965183 -0.102902 2.80087e-009 -2.91066e-009 5.13364e-009 -10.2786 0.731801 -0.0259123 2.80088e-009 -2.91066e-009 5.13363e-009 -2.22167 -0.733487 0.20892 -2.03217e-016 0 -3.88251e-019 -0.98717 -21.2485 1.67922 -0.456932 45.5131 0.944588 -1.61267 -2.6819 -8.30616 2.03217e-016 0 3.88251e-019 10.0101 -14.9519 -1.80263 0.483164 48.2897 -1.10524 -2.47802 -6.52298 -14.4169 
